# AST/ASF file generated using VICON BodyLanguage
# -----------------------------------------------
:version 1.10
:name VICON
:units
  mass 1.0
  length 0.45
  angle deg
:documentation
   .ast/.asf automatically generated from VICON data using
   VICON BodyBuilder and BodyLanguage model FoxedUp or BRILLIANT.MOD
:root
   order TX TY TZ RX RY RZ
   axis XYZ
   position 0 0 0  
   orientation 0 0 0 
:bonedata
  begin
     id 1 
     name lhipjoint
     direction 0.606768 -0.715223 0.346827 
     length 2.41543 
     axis 0 0 0  XYZ
  end
  begin
     id 2 
     name lfemur
     direction 0.34202 -0.939693 0  
     length 7.2778  
     axis 0 0 20  XYZ
    dof rx ry rz
    limits (-160.0 20.0)
           (-70.0 70.0)
           (-60.0 70.0)
  end
  begin
     id 3 
     name ltibia
     direction 0.34202 -0.939693 0   
     length 7.61811   
     axis 0 0 20   XYZ
    dof rx
    limits (-10.0 170.0)
  end
  begin
     id 4 
     name lfoot
     direction 0.0823924 -0.226371 0.97055   
     length 2.33618   
     axis -90 7.62852e-016 20   XYZ
    dof rx rz
    limits (-45.0 90.0)
           (-70.0 20.0)
  end
  begin
     id 5 
     name ltoes
     direction 1.53554e-011 -4.21934e-011 1   
     length 1.17015   
     axis -90 7.62852e-016 20   XYZ
    dof rx
    limits (-90.0 20.0)
  end
  begin
     id 6 
     name rhipjoint
     direction -0.6077 -0.714582 0.346516   
     length 2.4176  
     axis 0 0 0  XYZ 
  end
  begin
     id 7 
     name rfemur
     direction -0.34202 -0.939693 0   
     length 7.28127   
     axis 0 0 -20   XYZ
    dof rx ry rz
    limits (-160.0 20.0)
           (-70.0 70.0)
           (-70.0 60.0)
  end
  begin
     id 8 
     name rtibia
     direction -0.34202 -0.939693 0   
     length 7.77648   
     axis 0 0 -20   XYZ
    dof rx
    limits (-10.0 170.0)
 end
 begin
     id 9 
     name rfoot
     direction -0.0809463 -0.222398 0.97159   
     length 2.37533  
     axis -90 -7.62852e-016 -20   XYZ
    dof rx rz
    limits (-45.0 90.0)
           (-20.0 70.0)
  end
  begin
     id 10 
     name rtoes
     direction -1.53568e-011 -4.21714e-011 1   
     length 1.18972   
     axis -90 -7.62852e-016 -20   XYZ
    dof rx
    limits (-90.0 20.0)
  end
  begin
     id 11 
     name lowerback
     direction 0.010968 0.991932 -0.126297   
     length 2.21698   
     axis 0 0 0   XYZ
    dof rx ry rz
    limits (-20.0 45.0)
           (-30.0 30.0)
           (-30.0 30.0)
  end
  begin
     id 12 
     name upperback
     direction 0.0167007 0.997503 -0.0686276   
     length 2.22371   
     axis 0 0 0   XYZ
    dof rx ry rz
    limits (-20.0 45.0)
           (-30.0 30.0)
           (-30.0 30.0)
  end
  begin
     id 13 
     name thorax
     direction 0.0111721 0.999885 -0.0102878   
     length 2.25242   
     axis 0 0 0   XYZ
    dof rx ry rz
    limits (-20.0 45.0)
           (-30.0 30.0)
           (-30.0 30.0)
  end
  begin
     id 14 
     name lowerneck
     direction -0.0120265 0.990428 0.137508   
     length 1.57674   
     axis 0 0 0   XYZ
    dof rx ry rz
    limits (-20.0 45.0)
           (-30.0 30.0)
           (-30.0 30.0)
  end
  begin
     id 15 
     name upperneck
     direction 0.0175669 0.998907 0.0433089   
     length 1.5618   
     axis 0 0 0   XYZ
    dof rx ry rz
    limits (-20.0 45.0)
           (-30.0 30.0)
           (-30.0 30.0)
  end
  begin
     id 16
     name head
     direction 0.00754609 0.99997 0.00185367  
     length 1.60579  
     axis 0 0 0   XYZ
    dof rx ry rz
    limits (-20.0 45.0)
           (-30.0 30.0)
           (-30.0 30.0)
  end
  begin
     id 17 
     name lclavicle
     direction 0.885866 0.429166 -0.176231  
     length 3.44967  
     axis 0 0 0   XYZ
    dof ry rz
    limits (-20.0 10.0)
           (0.0 20.0)
  end
  begin
     id 18 
     name lhumerus
     direction 1 -4.48973e-011 -1.90255e-027   
     length 5.20607   
     axis 180 -30 -90   XYZ
    dof rx ry rz
    limits (-60.0 90.0)
           (-90.0 90.0)
           (-90.0 90.0)
  end
  begin
     id 19
     name lradius
     direction 1 -4.48956e-011 9.87925e-027   
     length 3.39961   
     axis 180 -30 -90   XYZ
    dof rx
    limits (-10.0 170.0)
  end
  begin
     id 20
     name lwrist
     direction 1 -4.48985e-011 1.73247e-026   
     length 1.6998   
     axis -9.60847e-015 90 90   XYZ
    dof ry
    limits (-180.0 0.0)
 end
  begin
     id 21 
     name lhand
     direction 1 -4.48798e-011 3.46119e-026   
     length 0.519693   
     axis -2.21073e-014 90 90   XYZ
    dof rx rz
    limits (-90.0 90.0)
           (-45.0 45.0)
  end
  begin
     id 22 
     name lfingers
     direction 1 -4.48938e-011 6.92797e-026   
     length 0.41899   
     axis -4.42155e-014 90 90   XYZ
    dof rx
    limits (0.0 90.0)
  end
  begin
     id 23
     name lthumb
     direction 0.707107 -6.34952e-011 0.707107   
     length 0.601588   
     axis -90 45 6.0103e-014   XYZ
    dof rx rz
    limits (-45.0 45.0)
           (-45.0 45.0)
  end
  begin
     id 24 
     name rclavicle
     direction -0.866736 0.456792 -0.200276   
     length 3.45032  
     axis 0 0 0   XYZ 
    dof ry rz
    limits (-10.0 20.0)
           (-20.0 0.0)
  end
  begin
     id 25 
     name rhumerus
     direction -1 -4.4897e-011 8.65094e-028  
     length 5.32214   
     axis 180 30 90   XYZ
    dof rx ry rz
    limits (-90.0 60.0)
           (-90.0 90.0)
           (-90.0 90.0)
  end
  begin
     id 26 
     name rradius
     direction -1 -4.48987e-011 1.08427e-026   
     length 3.51208   
     axis 180 30 90   XYZ
    dof rx
    limits (-10.0 170.0)
  end
  begin
     id 27 
     name rwrist
     direction -1 -4.48961e-011 1.73222e-026   
     length 1.75604   
     axis -9.60847e-015 -90 -90   XYZ
    dof ry
    limits (-180.0 0.0)
  end
  begin
     id 28
     name rhand
     direction -1 -4.48895e-011 3.46314e-026   
     length 0.586681   
     axis -2.21073e-014 -90 -90   XYZ
    dof rx rz
    limits (-90.0 90.0)
           (-45.0 45.0)
  end
  begin
     id 29
     name rfingers
     direction -1 -4.48968e-011 6.92916e-026   
     length 0.472997   
     axis -4.42155e-014 -90 -90   XYZ
    dof rx
    limits (0.0 90.0)
  end
  begin
     id 30
     name rthumb
     direction -0.707107 -6.34848e-011 0.707107   
     length 0.679133   
     axis -90 -45 -6.0103e-014   XYZ
    dof rx rz
    limits (-45.0 45.0)
           (-45.0 45.0)
  end
:hierarchy
  begin
    root lhipjoint rhipjoint lowerback
    lhipjoint lfemur
    lfemur ltibia
    ltibia lfoot
    lfoot ltoes
    rhipjoint rfemur
    rfemur rtibia
    rtibia rfoot
    rfoot rtoes
    lowerback upperback
    upperback thorax
    thorax lowerneck lclavicle rclavicle
    lowerneck upperneck
    upperneck head
    lclavicle lhumerus
    lhumerus lradius
    lradius lwrist
    lwrist lhand lthumb
    lhand lfingers
    rclavicle rhumerus
    rhumerus rradius
    rradius rwrist
    rwrist rhand rthumb
    rhand rfingers
  end

#!OML:ASF H:\Dans Jumps\Project 1\Capture day 1\Session 1\subject.ASF
:FULLY-SPECIFIED
:DEGREES
64
root 0.471066 17.5352 -13.6561 5.80029 -0.414765 -1.71697
lowerback -2.65538 -0.574086 0.312326
upperback 2.98667 -0.854318 1.73407
thorax 4.5933 -0.446053 1.55992
lowerneck -13.7458 0.616221 -1.50799
upperneck 30.3174 1.3126 -0.0546172
head 12.2648 0.400595 0.428867
rclavicle -1.2424e-015 -9.74045e-015
rhumerus -26.7295 -22.5056 -76.6512
rradius 23.4205
rwrist 34.4097
rhand -20.1998 -27.6628
rfingers 7.12502
rthumb 6.14697 -57.5536
lclavicle -1.2424e-015 -9.74045e-015
lhumerus -21.7846 3.31836 87.2215
lradius 17.4242
lwrist 0.866204
lhand -25.3225 -4.63698
lfingers 7.12502
lthumb 1.2001 25.3394
rfemur -12.4254 -2.24908 19.9223
rtibia 22.1933
rfoot -14.4261 -2.19657
rtoes 9.55077
lfemur -11.1501 7.59381 -17.8429
ltibia 20.0654
lfoot -12.8071 4.14438
ltoes 1.79251
65
root 0.47463 17.5331 -13.6574 5.76753 -0.431106 -1.75374
lowerback -2.63079 -0.568788 0.34276
upperback 3.00141 -0.849275 1.74966
thorax 4.59435 -0.442871 1.5595
lowerneck -13.7542 0.621544 -1.50964
upperneck 30.3369 1.32225 -0.0580868
head 12.2744 0.404036 0.42937
rclavicle -8.94531e-016 3.77691e-015
rhumerus -26.7166 -22.5408 -76.6308
rradius 23.3732
rwrist 34.4659
rhand -20.2045 -27.6615
rfingers 7.12502
rthumb 6.14242 -57.5524
lclavicle -8.94531e-016 3.77691e-015
lhumerus -21.7643 3.3649 87.208
lradius 17.3995
lwrist 0.827815
lhand -25.3407 -4.62539
lfingers 7.12502
lthumb 1.18253 25.3511
rfemur -12.4075 -2.24585 19.9478
rtibia 22.2155
rfoot -14.437 -2.18789
rtoes 9.51482
lfemur -11.1782 7.63142 -17.8125
ltibia 20.1802
lfoot -12.8459 4.13166
ltoes 1.74649
66
root 0.478227 17.5312 -13.6585 5.73717 -0.450091 -1.78199
lowerback -2.60989 -0.564148 0.362824
upperback 3.0162 -0.844608 1.76396
thorax 4.59772 -0.440204 1.5635
lowerneck -13.7691 0.627317 -1.50714
upperneck 30.3628 1.33359 -0.0677905
head 12.288 0.407803 0.427108
rclavicle 8.74653e-015 1.31198e-014
rhumerus -26.6972 -22.5895 -76.6067
rradius 23.3202
rwrist 34.5414
rhand -20.2074 -27.646
rfingers 7.12502
rthumb 6.13957 -57.537
lclavicle 8.74653e-015 1.31198e-014
lhumerus -21.7404 3.41931 87.1955
lradius 17.3682
lwrist 0.780236
lhand -25.357 -4.63305
lfingers 7.12502
lthumb 1.16682 25.3435
rfemur -12.391 -2.24533 19.9638
rtibia 22.2363
rfoot -14.4484 -2.17481
rtoes 9.48129
lfemur -11.201 7.66636 -17.7922
ltibia 20.2829
lfoot -12.8819 4.12312
ltoes 1.71179
67
root 0.481827 17.5295 -13.6596 5.70981 -0.474611 -1.80393
lowerback -2.59311 -0.558551 0.376498
upperback 3.03015 -0.8383 1.77592
thorax 4.60256 -0.436892 1.56874
lowerneck -13.787 0.632675 -1.50182
upperneck 30.3936 1.34431 -0.0795664
head 12.3043 0.411283 0.423524
rclavicle 1.06847e-014 -1.45113e-014
rhumerus -26.6744 -22.6519 -76.5811
rradius 23.2638
rwrist 34.632
rhand -20.2075 -27.6197
rfingers 7.12502
rthumb 6.13951 -57.5108
lclavicle 1.06847e-014 -1.45113e-014
lhumerus -21.7169 3.47881 87.1829
lradius 17.3355
lwrist 0.720305
lhand -25.3683 -4.6277
lfingers 7.12502
lthumb 1.15589 25.3489
rfemur -12.3781 -2.24455 19.9728
rtibia 22.2575
rfoot -14.4605 -2.15791
rtoes 9.45046
lfemur -11.2178 7.69812 -17.7796
ltibia 20.3711
lfoot -12.912 4.12268
ltoes 1.67522
68
root 0.485351 17.5279 -13.6605 5.68362 -0.503703 -1.81892
lowerback -2.57808 -0.552682 0.381939
upperback 3.04297 -0.831154 1.78578
thorax 4.60729 -0.4334 1.57648
lowerneck -13.807 0.637976 -1.49405
upperneck 30.4302 1.35501 -0.0933598
head 12.3234 0.414696 0.418783
rclavicle -5.96354e-016 3.97569e-015
rhumerus -26.6501 -22.7239 -76.554
rradius 23.2055
rwrist 34.735
rhand -20.2055 -27.5849
rfingers 7.12502
rthumb 6.14138 -57.4759
lclavicle -5.96354e-016 3.97569e-015
lhumerus -21.6964 3.54008 87.171
lradius 17.3008
lwrist 0.654069
lhand -25.3826 -4.63474
lfingers 7.12502
lthumb 1.14205 25.3419
rfemur -12.3679 -2.23809 19.9744
rtibia 22.2811
rfoot -14.474 -2.14411
rtoes 9.41253
lfemur -11.2263 7.72564 -17.7744
ltibia 20.4434
lfoot -12.9373 4.1289
ltoes 1.65447
69
root 0.488822 17.5265 -13.6614 5.66035 -0.538507 -1.82591
lowerback -2.56794 -0.544589 0.379785
upperback 3.05486 -0.820586 1.79214
thorax 4.61379 -0.4284 1.58504
lowerneck -13.8269 0.641794 -1.48579
upperneck 30.4694 1.36265 -0.104556
head 12.3436 0.417109 0.41451
rclavicle 7.15625e-015 4.37326e-015
rhumerus -26.6248 -22.8051 -76.5271
rradius 23.1478
rwrist 34.8382
rhand -20.2014 -27.5514
rfingers 7.12502
rthumb 6.14542 -57.4423
lclavicle 7.15625e-015 4.37326e-015
lhumerus -21.6777 3.58908 87.1624
lradius 17.2678
lwrist 0.593767
lhand -25.3933 -4.62865
lfingers 7.12502
lthumb 1.13175 25.3481
rfemur -12.3628 -2.22739 19.9672
rtibia 22.3078
rfoot -14.488 -2.12995
rtoes 9.37687
lfemur -11.2288 7.749 -17.7784
ltibia 20.5012
lfoot -12.9582 4.14401
ltoes 1.64177
